<svg width="69" height="32" viewBox="0 0 69 32" fill="none" xmlns="http://www.w3.org/2000/svg">
<path d="M63.9181 1.51101C63.648 0.727841 62.7942 0.311881 62.011 0.581941L49.2485 4.98282C48.4653 5.25287 48.0493 6.10669 48.3194 6.88986C48.5895 7.67303 49.4433 8.08899 50.2265 7.81893L61.5709 3.90705L65.4828 15.2515C65.7529 16.0347 66.6067 16.4507 67.3899 16.1806C68.173 15.9105 68.589 15.0567 68.3189 14.2735L63.9181 1.51101ZM1 27L0.53069 28.4247C7.8358 30.8311 19.7027 32.4186 31.7272 29.405C43.8145 26.3756 56.0344 18.6964 63.8485 2.65695L62.5 2L61.1515 1.34305C53.7656 16.5036 42.3189 23.6577 30.9978 26.495C19.6139 29.3481 8.33087 27.8356 1.46931 25.5753L1 27Z" fill="black"/>
</svg>
