<svg width="627" height="151" viewBox="0 0 627 151" fill="none" xmlns="http://www.w3.org/2000/svg">
<path d="M67.7741 61.3636H48.8196C48.956 59.75 48.865 58.2955 48.5469 57C48.2287 55.7045 47.6832 54.5909 46.9105 53.6591C46.1378 52.7045 45.1264 51.9773 43.8764 51.4773C42.6264 50.9773 41.1378 50.7273 39.4105 50.7273C36.0923 50.7273 33.1264 51.5568 30.5128 53.2159C27.8991 54.8523 25.7287 57.2045 24.0014 60.2727C22.2741 63.3182 21.0469 66.9545 20.3196 71.1818C19.6832 75.2727 19.6605 78.6705 20.2514 81.375C20.865 84.0795 22.0582 86.1023 23.831 87.4432C25.6264 88.7841 27.956 89.4545 30.8196 89.4545C32.7287 89.4545 34.4787 89.2273 36.0696 88.7727C37.6832 88.3182 39.115 87.6705 40.365 86.8295C41.6378 85.9659 42.7173 84.9432 43.6037 83.7614C44.5128 82.5568 45.206 81.2273 45.6832 79.7727H64.7741C64.0469 82.7273 62.7514 85.75 60.8878 88.8409C59.0241 91.9091 56.615 94.7386 53.6605 97.3295C50.706 99.8977 47.2287 101.977 43.2287 103.568C39.2287 105.159 34.7287 105.955 29.7287 105.955C23.1832 105.955 17.5355 104.523 12.7855 101.659C8.05823 98.7955 4.62641 94.6136 2.49004 89.1136C0.376407 83.6136 -0.0440471 76.9091 1.22868 69C2.50141 61.3636 5.01277 54.9659 8.76277 49.8068C12.5128 44.6477 17.0696 40.7614 22.4332 38.1477C27.7969 35.5341 33.5014 34.2273 39.5469 34.2273C44.115 34.2273 48.206 34.8295 51.8196 36.0341C55.456 37.2386 58.5128 39 60.99 41.3182C63.49 43.6136 65.331 46.4432 66.5128 49.8068C67.6946 53.1705 68.115 57.0227 67.7741 61.3636Z" fill="black"/>
<path d="M85.1946 105H64.74L99.3764 35.1818H125.285L136.74 105H116.285L109.467 54.4091H108.922L85.1946 105ZM86.0128 77.4545H124.467L122.013 91.6364H83.5582L86.0128 77.4545Z" fill="black"/>
<path d="M143.464 105L155.055 35.1818H185.192C190.374 35.1818 194.749 36.125 198.317 38.0114C201.885 39.8977 204.453 42.6136 206.021 46.1591C207.589 49.7045 207.964 53.9545 207.146 58.9091C206.328 63.9091 204.521 68.125 201.726 71.5568C198.953 74.9659 195.419 77.5568 191.124 79.3295C186.851 81.0795 182.055 81.9545 176.737 81.9545H158.737L161.192 67.2273H175.374C177.601 67.2273 179.555 66.9545 181.237 66.4091C182.919 65.8409 184.283 64.9545 185.328 63.75C186.374 62.5227 187.055 60.9091 187.374 58.9091C187.692 56.9091 187.533 55.2841 186.896 54.0341C186.26 52.7614 185.203 51.8295 183.726 51.2386C182.249 50.625 180.419 50.3182 178.237 50.3182H171.555L162.419 105H143.464ZM189.692 72.9545L201.828 105H181.237L169.51 72.9545H189.692Z" fill="black"/>
<path d="M208.527 105L220.118 35.1818H270.436L267.845 50.4545H236.482L234.572 62.4545H263.345L260.754 77.7273H231.982L230.072 89.7273H261.3L258.709 105H208.527Z" fill="black"/>
<path d="M268.246 105L279.837 35.1818H330.155L327.564 50.4545H296.2L294.291 62.4545H323.064L320.473 77.7273H291.7L289.791 89.7273H321.018L318.428 105H268.246Z" fill="black"/>
<path d="M327.964 105L339.555 35.1818H369.692C374.874 35.1818 379.249 36.125 382.817 38.0114C386.385 39.8977 388.953 42.6136 390.521 46.1591C392.089 49.7045 392.464 53.9545 391.646 58.9091C390.828 63.9091 389.021 68.125 386.226 71.5568C383.453 74.9659 379.919 77.5568 375.624 79.3295C371.351 81.0795 366.555 81.9545 361.237 81.9545H343.237L345.692 67.2273H359.874C362.101 67.2273 364.055 66.9545 365.737 66.4091C367.419 65.8409 368.783 64.9545 369.828 63.75C370.874 62.5227 371.555 60.9091 371.874 58.9091C372.192 56.9091 372.033 55.2841 371.396 54.0341C370.76 52.7614 369.703 51.8295 368.226 51.2386C366.749 50.625 364.919 50.3182 362.737 50.3182H356.055L346.919 105H327.964ZM374.192 72.9545L386.328 105H365.737L354.01 72.9545H374.192Z" fill="black"/>
<path d="M439.425 105H412.152L423.743 35.1818H449.925C457.107 35.1818 463.107 36.625 467.925 39.5114C472.743 42.3977 476.163 46.5227 478.186 51.8864C480.209 57.25 480.607 63.6364 479.379 71.0455C478.197 78.1818 475.8 84.2841 472.186 89.3523C468.595 94.4205 464.004 98.2955 458.413 100.977C452.845 103.659 446.516 105 439.425 105ZM433.766 88.9091H440.652C444.107 88.9091 447.186 88.3068 449.891 87.1023C452.618 85.875 454.891 83.8295 456.709 80.9659C458.55 78.0795 459.879 74.1364 460.697 69.1364C461.47 64.4091 461.447 60.7614 460.629 58.1932C459.811 55.6023 458.254 53.8068 455.959 52.8068C453.663 51.7841 450.697 51.2727 447.061 51.2727H440.038L433.766 88.9091Z" fill="black"/>
<path d="M496.288 105H475.834L510.47 35.1818H536.379L547.834 105H527.379L520.561 54.4091H520.016L496.288 105ZM497.107 77.4545H535.561L533.107 91.6364H494.652L497.107 77.4545Z" fill="black"/>
<path d="M556.161 35.1818H577.297L586.161 63.5455H586.842L605.115 35.1818H626.251L592.706 83.0455L589.024 105H570.206L573.888 83.0455L556.161 35.1818Z" fill="black"/>
<path d="M14.8139 1.18182V15H13.1406V1.18182H14.8139Z" fill="black"/>
<path d="M25.7257 4.63636C25.6447 3.95265 25.3164 3.42188 24.7406 3.04403C24.1649 2.66619 23.4587 2.47727 22.622 2.47727C22.0103 2.47727 21.475 2.57623 21.0162 2.77415C20.5619 2.97206 20.2065 3.2442 19.9501 3.59055C19.6982 3.93691 19.5723 4.33049 19.5723 4.77131C19.5723 5.14015 19.66 5.45727 19.8354 5.72266C20.0154 5.98355 20.2448 6.2017 20.5236 6.37713C20.8025 6.54806 21.0949 6.68975 21.4008 6.8022C21.7066 6.91016 21.9878 6.99787 22.2442 7.06534L23.6476 7.44318C24.0074 7.53764 24.4078 7.66809 24.8486 7.83452C25.2939 8.00095 25.719 8.2281 26.1238 8.51598C26.5331 8.79936 26.8705 9.16371 27.1359 9.60902C27.4013 10.0543 27.5339 10.6009 27.5339 11.2486C27.5339 11.9953 27.3383 12.67 26.9469 13.2727C26.5601 13.8755 25.9933 14.3545 25.2467 14.7099C24.5045 15.0652 23.6026 15.2429 22.541 15.2429C21.5515 15.2429 20.6946 15.0832 19.9704 14.7638C19.2507 14.4445 18.6839 13.9992 18.2701 13.4279C17.8608 12.8567 17.6291 12.1932 17.5751 11.4375H19.3024C19.3474 11.9593 19.5228 12.3911 19.8287 12.733C20.1391 13.0703 20.5304 13.3222 21.0027 13.4886C21.4795 13.6506 21.9923 13.7315 22.541 13.7315C23.1798 13.7315 23.7533 13.6281 24.2616 13.4212C24.7699 13.2098 25.1724 12.9174 25.4693 12.544C25.7662 12.1662 25.9146 11.7254 25.9146 11.2216C25.9146 10.7628 25.7864 10.3894 25.53 10.1016C25.2736 9.81368 24.9363 9.57978 24.518 9.39986C24.0996 9.21993 23.6476 9.0625 23.1618 8.92756L21.4615 8.44176C20.382 8.13139 19.5273 7.68833 18.8976 7.11257C18.2678 6.53681 17.953 5.78338 17.953 4.85227C17.953 4.0786 18.1621 3.40388 18.5805 2.82813C19.0033 2.24787 19.57 1.79806 20.2807 1.47869C20.9959 1.15483 21.7944 0.992897 22.676 0.992897C23.5666 0.992897 24.3583 1.15258 25.051 1.47195C25.7437 1.78681 26.2925 2.21863 26.6973 2.7674C27.1066 3.31617 27.3225 3.93916 27.345 4.63636H25.7257Z" fill="black"/>
<path d="M29.5294 2.66619V1.18182H39.8931V2.66619H35.5479V15H33.8746V2.66619H29.5294Z" fill="black"/>
<path d="M44.1488 1.18182V15H42.4755V1.18182H44.1488Z" fill="black"/>
<path d="M46.7482 2.66619V1.18182H57.1118V2.66619H52.7666V15H51.0933V2.66619H46.7482Z" fill="black"/>
<path d="M68.7625 1.18182H70.4358V10.331C70.4358 11.2756 70.2131 12.119 69.7678 12.8612C69.327 13.5988 68.704 14.1813 67.8988 14.6087C67.0937 15.0315 66.1491 15.2429 65.065 15.2429C63.981 15.2429 63.0364 15.0315 62.2312 14.6087C61.426 14.1813 60.8008 13.5988 60.3555 12.8612C59.9147 12.119 59.6943 11.2756 59.6943 10.331V1.18182H61.3676V10.196C61.3676 10.8707 61.516 11.4712 61.8129 11.9975C62.1098 12.5193 62.5326 12.9309 63.0814 13.2322C63.6346 13.5291 64.2958 13.6776 65.065 13.6776C65.8342 13.6776 66.4954 13.5291 67.0487 13.2322C67.602 12.9309 68.0248 12.5193 68.3171 11.9975C68.614 11.4712 68.7625 10.8707 68.7625 10.196V1.18182Z" fill="black"/>
<path d="M73.0216 2.66619V1.18182H83.3852V2.66619H79.0401V15H77.3668V2.66619H73.0216Z" fill="black"/>
<path d="M97.0516 8.09091C97.0516 9.5483 96.7885 10.8078 96.2622 11.8693C95.7359 12.9309 95.014 13.7495 94.0964 14.3253C93.1787 14.901 92.1307 15.1889 90.9522 15.1889C89.7737 15.1889 88.7256 14.901 87.808 14.3253C86.8904 13.7495 86.1684 12.9309 85.6422 11.8693C85.1159 10.8078 84.8527 9.5483 84.8527 8.09091C84.8527 6.63352 85.1159 5.37405 85.6422 4.3125C86.1684 3.25095 86.8904 2.43229 87.808 1.85653C88.7256 1.28078 89.7737 0.992897 90.9522 0.992897C92.1307 0.992897 93.1787 1.28078 94.0964 1.85653C95.014 2.43229 95.7359 3.25095 96.2622 4.3125C96.7885 5.37405 97.0516 6.63352 97.0516 8.09091ZM95.4323 8.09091C95.4323 6.89441 95.2321 5.88459 94.8318 5.06144C94.436 4.23828 93.8984 3.61529 93.2192 3.19247C92.5445 2.76965 91.7888 2.55824 90.9522 2.55824C90.1155 2.55824 89.3576 2.76965 88.6784 3.19247C88.0037 3.61529 87.4662 4.23828 87.0658 5.06144C86.67 5.88459 86.4721 6.89441 86.4721 8.09091C86.4721 9.28741 86.67 10.2972 87.0658 11.1204C87.4662 11.9435 88.0037 12.5665 88.6784 12.9893C89.3576 13.4122 90.1155 13.6236 90.9522 13.6236C91.7888 13.6236 92.5445 13.4122 93.2192 12.9893C93.8984 12.5665 94.436 11.9435 94.8318 11.1204C95.2321 10.2972 95.4323 9.28741 95.4323 8.09091Z" fill="black"/>
<path d="M109.473 15H105.209V1.18182H109.662C111.002 1.18182 112.15 1.45845 113.103 2.01172C114.057 2.56049 114.788 3.3499 115.296 4.37997C115.804 5.40554 116.058 6.63352 116.058 8.06392C116.058 9.50331 115.802 10.7425 115.289 11.7816C114.776 12.8162 114.03 13.6123 113.049 14.1701C112.069 14.7234 110.877 15 109.473 15ZM106.882 13.5156H109.365C110.508 13.5156 111.455 13.2952 112.206 12.8544C112.957 12.4136 113.517 11.7861 113.886 10.9719C114.255 10.1578 114.439 9.18845 114.439 8.06392C114.439 6.94839 114.257 5.98804 113.893 5.18288C113.528 4.37322 112.984 3.75249 112.26 3.32067C111.536 2.88435 110.634 2.66619 109.554 2.66619H106.882V13.5156Z" fill="black"/>
<path d="M120.538 1.18182V15H118.865V1.18182H120.538Z" fill="black"/>
<path d="M130.911 1.18182V15H129.237V1.18182H130.911Z" fill="black"/>
<path d="M141.822 4.63636C141.741 3.95265 141.413 3.42188 140.837 3.04403C140.262 2.66619 139.555 2.47727 138.719 2.47727C138.107 2.47727 137.572 2.57623 137.113 2.77415C136.659 2.97206 136.303 3.2442 136.047 3.59055C135.795 3.93691 135.669 4.33049 135.669 4.77131C135.669 5.14015 135.757 5.45727 135.932 5.72266C136.112 5.98355 136.341 6.2017 136.62 6.37713C136.899 6.54806 137.192 6.68975 137.497 6.8022C137.803 6.91016 138.084 6.99787 138.341 7.06534L139.744 7.44318C140.104 7.53764 140.504 7.66809 140.945 7.83452C141.391 8.00095 141.816 8.2281 142.22 8.51598C142.63 8.79936 142.967 9.16371 143.233 9.60902C143.498 10.0543 143.631 10.6009 143.631 11.2486C143.631 11.9953 143.435 12.67 143.044 13.2727C142.657 13.8755 142.09 14.3545 141.343 14.7099C140.601 15.0652 139.699 15.2429 138.638 15.2429C137.648 15.2429 136.791 15.0832 136.067 14.7638C135.347 14.4445 134.781 13.9992 134.367 13.4279C133.957 12.8567 133.726 12.1932 133.672 11.4375H135.399C135.444 11.9593 135.619 12.3911 135.925 12.733C136.236 13.0703 136.627 13.3222 137.099 13.4886C137.576 13.6506 138.089 13.7315 138.638 13.7315C139.276 13.7315 139.85 13.6281 140.358 13.4212C140.867 13.2098 141.269 12.9174 141.566 12.544C141.863 12.1662 142.011 11.7254 142.011 11.2216C142.011 10.7628 141.883 10.3894 141.627 10.1016C141.37 9.81368 141.033 9.57978 140.615 9.39986C140.196 9.21993 139.744 9.0625 139.258 8.92756L137.558 8.44176C136.479 8.13139 135.624 7.68833 134.994 7.11257C134.365 6.53681 134.05 5.78338 134.05 4.85227C134.05 4.0786 134.259 3.40388 134.677 2.82813C135.1 2.24787 135.667 1.79806 136.377 1.47869C137.093 1.15483 137.891 0.992897 138.773 0.992897C139.663 0.992897 140.455 1.15258 141.148 1.47195C141.84 1.78681 142.389 2.21863 142.794 2.7674C143.203 3.31617 143.419 3.93916 143.442 4.63636H141.822Z" fill="black"/>
<path d="M145.626 2.66619V1.18182H155.99V2.66619H151.645V15H149.971V2.66619H145.626Z" fill="black"/>
<path d="M158.572 15V1.18182H163.241C164.321 1.18182 165.207 1.36624 165.9 1.73508C166.592 2.09943 167.105 2.60097 167.438 3.2397C167.771 3.87843 167.937 4.60488 167.937 5.41903C167.937 6.23319 167.771 6.95514 167.438 7.58487C167.105 8.21461 166.595 8.7094 165.906 9.06925C165.218 9.4246 164.339 9.60227 163.268 9.60227H159.49V8.09091H163.214C163.952 8.09091 164.546 7.98295 164.995 7.76705C165.45 7.55114 165.778 7.24527 165.981 6.84943C166.188 6.4491 166.291 5.9723 166.291 5.41903C166.291 4.86577 166.188 4.38222 165.981 3.96839C165.774 3.55457 165.443 3.2352 164.989 3.0103C164.534 2.78089 163.934 2.66619 163.187 2.66619H160.245V15H158.572ZM165.076 8.79261L168.477 15H166.534L163.187 8.79261H165.076Z" fill="black"/>
<path d="M179.794 1.18182H181.467V10.331C181.467 11.2756 181.244 12.119 180.799 12.8612C180.358 13.5988 179.735 14.1813 178.93 14.6087C178.125 15.0315 177.18 15.2429 176.096 15.2429C175.012 15.2429 174.068 15.0315 173.262 14.6087C172.457 14.1813 171.832 13.5988 171.387 12.8612C170.946 12.119 170.726 11.2756 170.726 10.331V1.18182H172.399V10.196C172.399 10.8707 172.547 11.4712 172.844 11.9975C173.141 12.5193 173.564 12.9309 174.113 13.2322C174.666 13.5291 175.327 13.6776 176.096 13.6776C176.865 13.6776 177.527 13.5291 178.08 13.2322C178.633 12.9309 179.056 12.5193 179.348 11.9975C179.645 11.4712 179.794 10.8707 179.794 10.196V1.18182Z" fill="black"/>
<path d="M184.35 15V13.7855L191.799 2.66619H184.269V1.18182H193.796V2.39631L186.347 13.5156H193.877V15H184.35Z" fill="black"/>
<path d="M198.357 1.18182V15H196.684V1.18182H198.357Z" fill="black"/>
<path d="M213.371 8.09091C213.371 9.5483 213.108 10.8078 212.582 11.8693C212.055 12.9309 211.333 13.7495 210.416 14.3253C209.498 14.901 208.45 15.1889 207.272 15.1889C206.093 15.1889 205.045 14.901 204.127 14.3253C203.21 13.7495 202.488 12.9309 201.962 11.8693C201.435 10.8078 201.172 9.5483 201.172 8.09091C201.172 6.63352 201.435 5.37405 201.962 4.3125C202.488 3.25095 203.21 2.43229 204.127 1.85653C205.045 1.28078 206.093 0.992897 207.272 0.992897C208.45 0.992897 209.498 1.28078 210.416 1.85653C211.333 2.43229 212.055 3.25095 212.582 4.3125C213.108 5.37405 213.371 6.63352 213.371 8.09091ZM211.752 8.09091C211.752 6.89441 211.551 5.88459 211.151 5.06144C210.755 4.23828 210.218 3.61529 209.539 3.19247C208.864 2.76965 208.108 2.55824 207.272 2.55824C206.435 2.55824 205.677 2.76965 204.998 3.19247C204.323 3.61529 203.785 4.23828 203.385 5.06144C202.989 5.88459 202.791 6.89441 202.791 8.09091C202.791 9.28741 202.989 10.2972 203.385 11.1204C203.785 11.9435 204.323 12.5665 204.998 12.9893C205.677 13.4122 206.435 13.6236 207.272 13.6236C208.108 13.6236 208.864 13.4122 209.539 12.9893C210.218 12.5665 210.755 11.9435 211.151 11.1204C211.551 10.2972 211.752 9.28741 211.752 8.09091Z" fill="black"/>
<path d="M227.142 1.18182V15H225.523L217.993 4.15057H217.858V15H216.185V1.18182H217.804L225.361 12.0582H225.496V1.18182H227.142Z" fill="black"/>
<path d="M230.49 15V1.18182H238.83V2.66619H232.163V7.33523H238.398V8.8196H232.163V13.5156H238.938V15H230.49Z" fill="black"/>
<path d="M254.746 4.63636C254.665 3.95265 254.337 3.42188 253.761 3.04403C253.185 2.66619 252.479 2.47727 251.643 2.47727C251.031 2.47727 250.496 2.57623 250.037 2.77415C249.582 2.97206 249.227 3.2442 248.971 3.59055C248.719 3.93691 248.593 4.33049 248.593 4.77131C248.593 5.14015 248.681 5.45727 248.856 5.72266C249.036 5.98355 249.265 6.2017 249.544 6.37713C249.823 6.54806 250.115 6.68975 250.421 6.8022C250.727 6.91016 251.008 6.99787 251.265 7.06534L252.668 7.44318C253.028 7.53764 253.428 7.66809 253.869 7.83452C254.314 8.00095 254.739 8.2281 255.144 8.51598C255.554 8.79936 255.891 9.16371 256.156 9.60902C256.422 10.0543 256.554 10.6009 256.554 11.2486C256.554 11.9953 256.359 12.67 255.967 13.2727C255.581 13.8755 255.014 14.3545 254.267 14.7099C253.525 15.0652 252.623 15.2429 251.562 15.2429C250.572 15.2429 249.715 15.0832 248.991 14.7638C248.271 14.4445 247.704 13.9992 247.291 13.4279C246.881 12.8567 246.65 12.1932 246.596 11.4375H248.323C248.368 11.9593 248.543 12.3911 248.849 12.733C249.16 13.0703 249.551 13.3222 250.023 13.4886C250.5 13.6506 251.013 13.7315 251.562 13.7315C252.2 13.7315 252.774 13.6281 253.282 13.4212C253.79 13.2098 254.193 12.9174 254.49 12.544C254.787 12.1662 254.935 11.7254 254.935 11.2216C254.935 10.7628 254.807 10.3894 254.551 10.1016C254.294 9.81368 253.957 9.57978 253.538 9.39986C253.12 9.21993 252.668 9.0625 252.182 8.92756L250.482 8.44176C249.402 8.13139 248.548 7.68833 247.918 7.11257C247.288 6.53681 246.973 5.78338 246.973 4.85227C246.973 4.0786 247.183 3.40388 247.601 2.82813C248.024 2.24787 248.591 1.79806 249.301 1.47869C250.016 1.15483 250.815 0.992897 251.697 0.992897C252.587 0.992897 253.379 1.15258 254.072 1.47195C254.764 1.78681 255.313 2.21863 255.718 2.7674C256.127 3.31617 256.343 3.93916 256.366 4.63636H254.746Z" fill="black"/>
<path d="M268.374 1.18182H270.047V10.331C270.047 11.2756 269.824 12.119 269.379 12.8612C268.938 13.5988 268.315 14.1813 267.51 14.6087C266.705 15.0315 265.76 15.2429 264.676 15.2429C263.592 15.2429 262.648 15.0315 261.843 14.6087C261.037 14.1813 260.412 13.5988 259.967 12.8612C259.526 12.119 259.306 11.2756 259.306 10.331V1.18182H260.979V10.196C260.979 10.8707 261.127 11.4712 261.424 11.9975C261.721 12.5193 262.144 12.9309 262.693 13.2322C263.246 13.5291 263.907 13.6776 264.676 13.6776C265.446 13.6776 266.107 13.5291 266.66 13.2322C267.213 12.9309 267.636 12.5193 267.928 11.9975C268.225 11.4712 268.374 10.8707 268.374 10.196V1.18182Z" fill="black"/>
<path d="M273.389 15V1.18182H278.058C279.142 1.18182 280.028 1.37749 280.716 1.76882C281.409 2.15566 281.922 2.67969 282.254 3.34091C282.587 4.00213 282.754 4.73982 282.754 5.55398C282.754 6.36813 282.587 7.10807 282.254 7.77379C281.926 8.43951 281.418 8.97029 280.73 9.36612C280.041 9.75746 279.16 9.95312 278.085 9.95312H274.738V8.46875H278.031C278.773 8.46875 279.369 8.34055 279.819 8.08416C280.268 7.82777 280.595 7.48142 280.797 7.0451C281.004 6.60429 281.107 6.10724 281.107 5.55398C281.107 5.00071 281.004 4.50592 280.797 4.0696C280.595 3.63329 280.266 3.29143 279.812 3.04403C279.358 2.79214 278.755 2.66619 278.004 2.66619H275.062V15H273.389Z" fill="black"/>
<path d="M285.449 15V1.18182H293.789V2.66619H287.122V7.33523H293.357V8.8196H287.122V13.5156H293.897V15H285.449Z" fill="black"/>
<path d="M296.805 15V1.18182H301.474C302.553 1.18182 303.439 1.36624 304.132 1.73508C304.825 2.09943 305.338 2.60097 305.67 3.2397C306.003 3.87843 306.17 4.60488 306.17 5.41903C306.17 6.23319 306.003 6.95514 305.67 7.58487C305.338 8.21461 304.827 8.7094 304.139 9.06925C303.451 9.4246 302.571 9.60227 301.501 9.60227H297.722V8.09091H301.447C302.184 8.09091 302.778 7.98295 303.228 7.76705C303.682 7.55114 304.011 7.24527 304.213 6.84943C304.42 6.4491 304.523 5.9723 304.523 5.41903C304.523 4.86577 304.42 4.38222 304.213 3.96839C304.006 3.55457 303.676 3.2352 303.221 3.0103C302.767 2.78089 302.166 2.66619 301.42 2.66619H298.478V15H296.805ZM303.309 8.79261L306.709 15H304.766L301.42 8.79261H303.309Z" fill="black"/>
<path d="M310.631 1.18182V15H308.958V1.18182H310.631Z" fill="black"/>
<path d="M325.645 8.09091C325.645 9.5483 325.382 10.8078 324.856 11.8693C324.33 12.9309 323.608 13.7495 322.69 14.3253C321.772 14.901 320.724 15.1889 319.546 15.1889C318.367 15.1889 317.319 14.901 316.402 14.3253C315.484 13.7495 314.762 12.9309 314.236 11.8693C313.71 10.8078 313.447 9.5483 313.447 8.09091C313.447 6.63352 313.71 5.37405 314.236 4.3125C314.762 3.25095 315.484 2.43229 316.402 1.85653C317.319 1.28078 318.367 0.992897 319.546 0.992897C320.724 0.992897 321.772 1.28078 322.69 1.85653C323.608 2.43229 324.33 3.25095 324.856 4.3125C325.382 5.37405 325.645 6.63352 325.645 8.09091ZM324.026 8.09091C324.026 6.89441 323.826 5.88459 323.426 5.06144C323.03 4.23828 322.492 3.61529 321.813 3.19247C321.138 2.76965 320.383 2.55824 319.546 2.55824C318.709 2.55824 317.951 2.76965 317.272 3.19247C316.597 3.61529 316.06 4.23828 315.66 5.06144C315.264 5.88459 315.066 6.89441 315.066 8.09091C315.066 9.28741 315.264 10.2972 315.66 11.1204C316.06 11.9435 316.597 12.5665 317.272 12.9893C317.951 13.4122 318.709 13.6236 319.546 13.6236C320.383 13.6236 321.138 13.4122 321.813 12.9893C322.492 12.5665 323.03 11.9435 323.426 11.1204C323.826 10.2972 324.026 9.28741 324.026 8.09091Z" fill="black"/>
<path d="M328.459 15V1.18182H333.128C334.208 1.18182 335.094 1.36624 335.786 1.73508C336.479 2.09943 336.992 2.60097 337.325 3.2397C337.658 3.87843 337.824 4.60488 337.824 5.41903C337.824 6.23319 337.658 6.95514 337.325 7.58487C336.992 8.21461 336.481 8.7094 335.793 9.06925C335.105 9.4246 334.225 9.60227 333.155 9.60227H329.377V8.09091H333.101C333.839 8.09091 334.432 7.98295 334.882 7.76705C335.337 7.55114 335.665 7.24527 335.867 6.84943C336.074 6.4491 336.178 5.9723 336.178 5.41903C336.178 4.86577 336.074 4.38222 335.867 3.96839C335.66 3.55457 335.33 3.2352 334.875 3.0103C334.421 2.78089 333.821 2.66619 333.074 2.66619H330.132V15H328.459ZM334.963 8.79261L338.364 15H336.421L333.074 8.79261H334.963Z" fill="black"/>
<path d="M340.612 15V1.18182H348.952V2.66619H342.286V7.33523H348.52V8.8196H342.286V13.5156H349.06V15H340.612Z" fill="black"/>
<path d="M356.556 5.5V4.28551C356.556 3.91667 356.621 3.52533 356.751 3.11151C356.886 2.69318 357.08 2.2906 357.332 1.90376C357.588 1.51243 357.896 1.17282 358.256 0.884943L359.12 1.58665C358.836 1.99148 358.589 2.4143 358.378 2.85511C358.171 3.29143 358.067 3.75923 358.067 4.25852V5.5H356.556ZM360.01 5.5V4.28551C360.01 3.91667 360.076 3.52533 360.206 3.11151C360.341 2.69318 360.534 2.2906 360.786 1.90376C361.043 1.51243 361.351 1.17282 361.711 0.884943L362.574 1.58665C362.291 1.99148 362.043 2.4143 361.832 2.85511C361.625 3.29143 361.522 3.75923 361.522 4.25852V5.5H360.01Z" fill="black"/>
<path d="M364.548 15V1.18182H366.221V13.5156H372.644V15H364.548Z" fill="black"/>
<path d="M384.303 1.18182H385.977V10.331C385.977 11.2756 385.754 12.119 385.309 12.8612C384.868 13.5988 384.245 14.1813 383.44 14.6087C382.635 15.0315 381.69 15.2429 380.606 15.2429C379.522 15.2429 378.577 15.0315 377.772 14.6087C376.967 14.1813 376.342 13.5988 375.897 12.8612C375.456 12.119 375.235 11.2756 375.235 10.331V1.18182H376.909V10.196C376.909 10.8707 377.057 11.4712 377.354 11.9975C377.651 12.5193 378.074 12.9309 378.622 13.2322C379.176 13.5291 379.837 13.6776 380.606 13.6776C381.375 13.6776 382.036 13.5291 382.59 13.2322C383.143 12.9309 383.566 12.5193 383.858 11.9975C384.155 11.4712 384.303 10.8707 384.303 10.196V1.18182Z" fill="black"/>
<path d="M390.992 1.18182V15H389.318V1.18182H390.992Z" fill="black"/>
<path d="M403.793 5.5C403.644 5.04569 403.449 4.63861 403.206 4.27876C402.967 3.91442 402.682 3.60405 402.349 3.34766C402.02 3.09126 401.647 2.8956 401.229 2.76065C400.81 2.62571 400.352 2.55824 399.852 2.55824C399.034 2.55824 398.289 2.76965 397.619 3.19247C396.949 3.61529 396.416 4.23828 396.02 5.06144C395.624 5.88459 395.426 6.89441 395.426 8.09091C395.426 9.28741 395.626 10.2972 396.027 11.1204C396.427 11.9435 396.969 12.5665 397.653 12.9893C398.336 13.4122 399.106 13.6236 399.96 13.6236C400.752 13.6236 401.449 13.4549 402.052 13.1175C402.659 12.7757 403.131 12.2944 403.469 11.6737C403.811 11.0484 403.982 10.313 403.982 9.46733L404.494 9.57528H400.338V8.09091H405.601V9.57528C405.601 10.7133 405.358 11.7029 404.872 12.544C404.391 13.3852 403.725 14.0374 402.875 14.5007C402.029 14.9595 401.058 15.1889 399.96 15.1889C398.737 15.1889 397.662 14.901 396.735 14.3253C395.813 13.7495 395.093 12.9309 394.576 11.8693C394.063 10.8078 393.807 9.5483 393.807 8.09091C393.807 6.99787 393.953 6.01503 394.245 5.1424C394.542 4.26527 394.961 3.51858 395.5 2.90234C396.04 2.2861 396.679 1.8138 397.417 1.48544C398.154 1.15708 398.966 0.992897 399.852 0.992897C400.581 0.992897 401.26 1.1031 401.89 1.32351C402.524 1.53942 403.089 1.84754 403.583 2.24787C404.083 2.6437 404.499 3.11825 404.832 3.67152C405.165 4.22029 405.394 4.82978 405.52 5.5H403.793Z" fill="black"/>
<path d="M410.14 1.18182V15H408.467V1.18182H410.14Z" fill="black"/>
<path d="M423.103 15H418.839V1.18182H423.292C424.632 1.18182 425.779 1.45845 426.733 2.01172C427.687 2.56049 428.418 3.3499 428.926 4.37997C429.434 5.40554 429.688 6.63352 429.688 8.06392C429.688 9.50331 429.432 10.7425 428.919 11.7816C428.406 12.8162 427.66 13.6123 426.679 14.1701C425.698 14.7234 424.506 15 423.103 15ZM420.512 13.5156H422.995C424.138 13.5156 425.084 13.2952 425.836 12.8544C426.587 12.4136 427.147 11.7861 427.516 10.9719C427.885 10.1578 428.069 9.18845 428.069 8.06392C428.069 6.94839 427.887 5.98804 427.522 5.18288C427.158 4.37322 426.614 3.75249 425.89 3.32067C425.165 2.88435 424.264 2.66619 423.184 2.66619H420.512V13.5156Z" fill="black"/>
<path d="M434.168 1.18182V15H432.495V1.18182H434.168Z" fill="black"/>
<path d="M450.424 4.63636C450.343 3.95265 450.015 3.42188 449.439 3.04403C448.863 2.66619 448.157 2.47727 447.32 2.47727C446.709 2.47727 446.173 2.57623 445.714 2.77415C445.26 2.97206 444.905 3.2442 444.648 3.59055C444.396 3.93691 444.271 4.33049 444.271 4.77131C444.271 5.14015 444.358 5.45727 444.534 5.72266C444.714 5.98355 444.943 6.2017 445.222 6.37713C445.501 6.54806 445.793 6.68975 446.099 6.8022C446.405 6.91016 446.686 6.99787 446.942 7.06534L448.346 7.44318C448.706 7.53764 449.106 7.66809 449.547 7.83452C449.992 8.00095 450.417 8.2281 450.822 8.51598C451.231 8.79936 451.569 9.16371 451.834 9.60902C452.099 10.0543 452.232 10.6009 452.232 11.2486C452.232 11.9953 452.037 12.67 451.645 13.2727C451.258 13.8755 450.692 14.3545 449.945 14.7099C449.203 15.0652 448.301 15.2429 447.239 15.2429C446.25 15.2429 445.393 15.0832 444.669 14.7638C443.949 14.4445 443.382 13.9992 442.968 13.4279C442.559 12.8567 442.327 12.1932 442.273 11.4375H444.001C444.046 11.9593 444.221 12.3911 444.527 12.733C444.837 13.0703 445.229 13.3222 445.701 13.4886C446.178 13.6506 446.691 13.7315 447.239 13.7315C447.878 13.7315 448.452 13.6281 448.96 13.4212C449.468 13.2098 449.871 12.9174 450.168 12.544C450.464 12.1662 450.613 11.7254 450.613 11.2216C450.613 10.7628 450.485 10.3894 450.228 10.1016C449.972 9.81368 449.635 9.57978 449.216 9.39986C448.798 9.21993 448.346 9.0625 447.86 8.92756L446.16 8.44176C445.08 8.13139 444.226 7.68833 443.596 7.11257C442.966 6.53681 442.651 5.78338 442.651 4.85227C442.651 4.0786 442.86 3.40388 443.279 2.82813C443.702 2.24787 444.268 1.79806 444.979 1.47869C445.694 1.15483 446.493 0.992897 447.374 0.992897C448.265 0.992897 449.057 1.15258 449.749 1.47195C450.442 1.78681 450.991 2.21863 451.396 2.7674C451.805 3.31617 452.021 3.93916 452.043 4.63636H450.424Z" fill="black"/>
<path d="M455.55 15H453.796L458.87 1.18182H460.597L465.671 15H463.917L459.787 3.3679H459.679L455.55 15ZM456.198 9.60227H463.269V11.0866H456.198V9.60227Z" fill="black"/>
<path d="M467.091 1.18182L471.193 12.8139H471.355L475.458 1.18182H477.212L472.138 15H470.411L465.337 1.18182H467.091Z" fill="black"/>
<path d="M490.374 8.09091C490.374 9.5483 490.111 10.8078 489.584 11.8693C489.058 12.9309 488.336 13.7495 487.419 14.3253C486.501 14.901 485.453 15.1889 484.274 15.1889C483.096 15.1889 482.048 14.901 481.13 14.3253C480.213 13.7495 479.491 12.9309 478.964 11.8693C478.438 10.8078 478.175 9.5483 478.175 8.09091C478.175 6.63352 478.438 5.37405 478.964 4.3125C479.491 3.25095 480.213 2.43229 481.13 1.85653C482.048 1.28078 483.096 0.992897 484.274 0.992897C485.453 0.992897 486.501 1.28078 487.419 1.85653C488.336 2.43229 489.058 3.25095 489.584 4.3125C490.111 5.37405 490.374 6.63352 490.374 8.09091ZM488.755 8.09091C488.755 6.89441 488.554 5.88459 488.154 5.06144C487.758 4.23828 487.221 3.61529 486.542 3.19247C485.867 2.76965 485.111 2.55824 484.274 2.55824C483.438 2.55824 482.68 2.76965 482.001 3.19247C481.326 3.61529 480.788 4.23828 480.388 5.06144C479.992 5.88459 479.794 6.89441 479.794 8.09091C479.794 9.28741 479.992 10.2972 480.388 11.1204C480.788 11.9435 481.326 12.5665 482.001 12.9893C482.68 13.4122 483.438 13.6236 484.274 13.6236C485.111 13.6236 485.867 13.4122 486.542 12.9893C487.221 12.5665 487.758 11.9435 488.154 11.1204C488.554 10.2972 488.755 9.28741 488.755 8.09091Z" fill="black"/>
<path d="M494.861 1.18182V15H493.187V1.18182H494.861Z" fill="black"/>
<path d="M498.783 15H497.028L502.102 1.18182H503.829L508.903 15H507.149L503.02 3.3679H502.912L498.783 15ZM499.43 9.60227H506.501V11.0866H499.43V9.60227Z" fill="black"/>
<path d="M510.295 1.18182V2.39631C510.295 2.76515 510.227 3.15874 510.092 3.57706C509.962 3.99089 509.769 4.39347 509.512 4.7848C509.26 5.17164 508.954 5.509 508.595 5.79688L507.731 5.09517C508.014 4.69034 508.259 4.26977 508.466 3.83345C508.678 3.39264 508.784 2.92258 508.784 2.4233V1.18182H510.295ZM513.749 1.18182V2.39631C513.749 2.76515 513.682 3.15874 513.547 3.57706C513.417 3.99089 513.223 4.39347 512.967 4.7848C512.715 5.17164 512.409 5.509 512.049 5.79688L511.185 5.09517C511.469 4.69034 511.714 4.26977 511.921 3.83345C512.132 3.39264 512.238 2.92258 512.238 2.4233V1.18182H513.749Z" fill="black"/>
<path d="M525.952 15H521.687V1.18182H526.141C527.481 1.18182 528.628 1.45845 529.582 2.01172C530.535 2.56049 531.266 3.3499 531.774 4.37997C532.283 5.40554 532.537 6.63352 532.537 8.06392C532.537 9.50331 532.28 10.7425 531.768 11.7816C531.255 12.8162 530.508 13.6123 529.528 14.1701C528.547 14.7234 527.355 15 525.952 15ZM523.361 13.5156H525.844C526.986 13.5156 527.933 13.2952 528.684 12.8544C529.435 12.4136 529.995 11.7861 530.364 10.9719C530.733 10.1578 530.918 9.18845 530.918 8.06392C530.918 6.94839 530.735 5.98804 530.371 5.18288C530.007 4.37322 529.462 3.75249 528.738 3.32067C528.014 2.88435 527.112 2.66619 526.033 2.66619H523.361V13.5156Z" fill="black"/>
<path d="M537.017 1.18182V15H535.344V1.18182H537.017Z" fill="black"/>
<path d="M556.835 5.5H555.162C555.063 5.0187 554.89 4.59588 554.642 4.23153C554.399 3.86719 554.102 3.56132 553.752 3.31392C553.405 3.06203 553.021 2.87311 552.598 2.74716C552.175 2.62121 551.734 2.55824 551.275 2.55824C550.439 2.55824 549.681 2.76965 549.002 3.19247C548.327 3.61529 547.789 4.23828 547.389 5.06144C546.993 5.88459 546.795 6.89441 546.795 8.09091C546.795 9.28741 546.993 10.2972 547.389 11.1204C547.789 11.9435 548.327 12.5665 549.002 12.9893C549.681 13.4122 550.439 13.6236 551.275 13.6236C551.734 13.6236 552.175 13.5606 552.598 13.4347C553.021 13.3087 553.405 13.122 553.752 12.8746C554.102 12.6228 554.399 12.3146 554.642 11.9503C554.89 11.5814 555.063 11.1586 555.162 10.6818H556.835C556.709 11.388 556.48 12.02 556.147 12.5778C555.814 13.1355 555.4 13.6101 554.905 14.0014C554.411 14.3883 553.855 14.6829 553.239 14.8853C552.627 15.0877 551.973 15.1889 551.275 15.1889C550.097 15.1889 549.049 14.901 548.131 14.3253C547.214 13.7495 546.492 12.9309 545.965 11.8693C545.439 10.8078 545.176 9.5483 545.176 8.09091C545.176 6.63352 545.439 5.37405 545.965 4.3125C546.492 3.25095 547.214 2.43229 548.131 1.85653C549.049 1.28078 550.097 0.992897 551.275 0.992897C551.973 0.992897 552.627 1.0941 553.239 1.29652C553.855 1.49893 554.411 1.79581 554.905 2.18714C555.4 2.57398 555.814 3.04628 556.147 3.60405C556.48 4.15732 556.709 4.7893 556.835 5.5Z" fill="black"/>
<path d="M559.539 15V1.18182H561.212V7.33523H568.58V1.18182H570.253V15H568.58V8.8196H561.212V15H559.539Z" fill="black"/>
<path d="M575.277 1.18182V15H573.603V1.18182H575.277Z" fill="black"/>
<path d="M578.632 15V1.18182H586.971V2.66619H580.305V7.33523H586.539V8.8196H580.305V13.5156H587.079V15H578.632Z" fill="black"/>
<path d="M589.232 2.66619V1.18182H599.595V2.66619H595.25V15H593.577V2.66619H589.232Z" fill="black"/>
<path d="M603.851 1.18182V15H602.178V1.18182H603.851Z" fill="black"/>
<path d="M61.9572 129.636V150H59.4913V129.636H61.9572Z" fill="black"/>
<path d="M66.9014 150V129.636H69.3674V147.812H78.8333V150H66.9014Z" fill="black"/>
<path d="M89.4128 131.824V129.636H104.686V131.824H98.2821V150H95.8162V131.824H89.4128Z" fill="black"/>
<path d="M121.855 129.636H124.321V143.119C124.321 144.511 123.993 145.754 123.336 146.848C122.687 147.935 121.769 148.794 120.582 149.423C119.396 150.046 118.004 150.358 116.406 150.358C114.809 150.358 113.416 150.046 112.23 149.423C111.043 148.794 110.122 147.935 109.466 146.848C108.816 145.754 108.491 144.511 108.491 143.119V129.636H110.957V142.92C110.957 143.915 111.176 144.8 111.613 145.575C112.051 146.344 112.674 146.951 113.483 147.395C114.298 147.832 115.273 148.051 116.406 148.051C117.54 148.051 118.514 147.832 119.329 147.395C120.145 146.951 120.768 146.344 121.199 145.575C121.636 144.8 121.855 143.915 121.855 142.92V129.636Z" fill="black"/>
<path d="M146.427 139.818C146.427 141.966 146.039 143.822 145.264 145.386C144.488 146.951 143.424 148.157 142.072 149.006C140.72 149.854 139.175 150.278 137.438 150.278C135.702 150.278 134.157 149.854 132.805 149.006C131.453 148.157 130.389 146.951 129.613 145.386C128.838 143.822 128.45 141.966 128.45 139.818C128.45 137.67 128.838 135.814 129.613 134.25C130.389 132.686 131.453 131.479 132.805 130.631C134.157 129.782 135.702 129.358 137.438 129.358C139.175 129.358 140.72 129.782 142.072 130.631C143.424 131.479 144.488 132.686 145.264 134.25C146.039 135.814 146.427 137.67 146.427 139.818ZM144.041 139.818C144.041 138.055 143.746 136.567 143.156 135.354C142.572 134.141 141.78 133.223 140.779 132.599C139.785 131.976 138.671 131.665 137.438 131.665C136.205 131.665 135.088 131.976 134.088 132.599C133.093 133.223 132.301 134.141 131.711 135.354C131.128 136.567 130.836 138.055 130.836 139.818C130.836 141.581 131.128 143.07 131.711 144.283C132.301 145.496 133.093 146.414 134.088 147.037C135.088 147.66 136.205 147.972 137.438 147.972C138.671 147.972 139.785 147.66 140.779 147.037C141.78 146.414 142.572 145.496 143.156 144.283C143.746 143.07 144.041 141.581 144.041 139.818Z" fill="black"/>
<path d="M158.448 150V129.636H170.659V131.824H160.914V138.705H169.744V140.892H160.914V150H158.448Z" fill="black"/>
<path d="M188.246 129.636H190.711V143.119C190.711 144.511 190.383 145.754 189.727 146.848C189.077 147.935 188.159 148.794 186.973 149.423C185.786 150.046 184.394 150.358 182.797 150.358C181.199 150.358 179.807 150.046 178.621 149.423C177.434 148.794 176.513 147.935 175.856 146.848C175.207 145.754 174.882 144.511 174.882 143.119V129.636H177.348V142.92C177.348 143.915 177.567 144.8 178.004 145.575C178.442 146.344 179.065 146.951 179.873 147.395C180.689 147.832 181.663 148.051 182.797 148.051C183.93 148.051 184.905 147.832 185.72 147.395C186.535 146.951 187.158 146.344 187.589 145.575C188.027 144.8 188.246 143.915 188.246 142.92V129.636Z" fill="black"/>
<path d="M194.522 131.824V129.636H209.795V131.824H203.391V150H200.926V131.824H194.522Z" fill="black"/>
<path d="M226.964 129.636H229.43V143.119C229.43 144.511 229.102 145.754 228.446 146.848C227.796 147.935 226.878 148.794 225.692 149.423C224.505 150.046 223.113 150.358 221.515 150.358C219.918 150.358 218.526 150.046 217.339 149.423C216.153 148.794 215.231 147.935 214.575 146.848C213.925 145.754 213.601 144.511 213.601 143.119V129.636H216.067V142.92C216.067 143.915 216.285 144.8 216.723 145.575C217.16 146.344 217.783 146.951 218.592 147.395C219.407 147.832 220.382 148.051 221.515 148.051C222.649 148.051 223.623 147.832 224.439 147.395C225.254 146.951 225.877 146.344 226.308 145.575C226.746 144.8 226.964 143.915 226.964 142.92V129.636Z" fill="black"/>
<path d="M234.355 150V129.636H241.235C242.826 129.636 244.132 129.908 245.153 130.452C246.174 130.989 246.929 131.728 247.42 132.669C247.91 133.61 248.156 134.681 248.156 135.881C248.156 137.08 247.91 138.144 247.42 139.072C246.929 140 246.177 140.73 245.163 141.26C244.149 141.784 242.853 142.045 241.275 142.045H235.707V139.818H241.195C242.283 139.818 243.158 139.659 243.82 139.341C244.49 139.023 244.974 138.572 245.272 137.989C245.577 137.399 245.73 136.696 245.73 135.881C245.73 135.065 245.577 134.353 245.272 133.743C244.967 133.133 244.48 132.662 243.811 132.331C243.141 131.993 242.256 131.824 241.156 131.824H236.82V150H234.355ZM243.94 140.852L248.951 150H246.088L241.156 140.852H243.94Z" fill="black"/>
<path d="M269.447 139.818C269.447 141.966 269.059 143.822 268.283 145.386C267.508 146.951 266.444 148.157 265.091 149.006C263.739 149.854 262.195 150.278 260.458 150.278C258.721 150.278 257.177 149.854 255.824 149.006C254.472 148.157 253.408 146.951 252.633 145.386C251.857 143.822 251.469 141.966 251.469 139.818C251.469 137.67 251.857 135.814 252.633 134.25C253.408 132.686 254.472 131.479 255.824 130.631C257.177 129.782 258.721 129.358 260.458 129.358C262.195 129.358 263.739 129.782 265.091 130.631C266.444 131.479 267.508 132.686 268.283 134.25C269.059 135.814 269.447 137.67 269.447 139.818ZM267.06 139.818C267.06 138.055 266.765 136.567 266.175 135.354C265.592 134.141 264.8 133.223 263.799 132.599C262.805 131.976 261.691 131.665 260.458 131.665C259.225 131.665 258.108 131.976 257.107 132.599C256.113 133.223 255.321 134.141 254.731 135.354C254.147 136.567 253.856 138.055 253.856 139.818C253.856 141.581 254.147 143.07 254.731 144.283C255.321 145.496 256.113 146.414 257.107 147.037C258.108 147.66 259.225 147.972 260.458 147.972C261.691 147.972 262.805 147.66 263.799 147.037C264.8 146.414 265.592 145.496 266.175 144.283C266.765 143.07 267.06 141.581 267.06 139.818Z" fill="black"/>
<path d="M282.303 150H279.718L287.195 129.636H289.741L297.218 150H294.633L288.547 132.858H288.388L282.303 150ZM283.258 142.045H293.678V144.233H283.258V142.045Z" fill="black"/>
<path d="M308.265 150V129.636H315.145C316.743 129.636 318.049 129.925 319.063 130.501C320.084 131.071 320.84 131.844 321.33 132.818C321.821 133.793 322.066 134.88 322.066 136.08C322.066 137.279 321.821 138.37 321.33 139.351C320.846 140.332 320.097 141.114 319.083 141.697C318.069 142.274 316.769 142.562 315.185 142.562H310.253V140.375H315.106C316.199 140.375 317.078 140.186 317.741 139.808C318.403 139.43 318.884 138.92 319.182 138.277C319.487 137.627 319.64 136.895 319.64 136.08C319.64 135.264 319.487 134.535 319.182 133.892C318.884 133.249 318.4 132.745 317.731 132.381C317.061 132.009 316.173 131.824 315.066 131.824H310.731V150H308.265Z" fill="black"/>
<path d="M343.22 139.818C343.22 141.966 342.832 143.822 342.057 145.386C341.281 146.951 340.217 148.157 338.865 149.006C337.513 149.854 335.968 150.278 334.231 150.278C332.495 150.278 330.95 149.854 329.598 149.006C328.246 148.157 327.182 146.951 326.406 145.386C325.63 143.822 325.243 141.966 325.243 139.818C325.243 137.67 325.63 135.814 326.406 134.25C327.182 132.686 328.246 131.479 329.598 130.631C330.95 129.782 332.495 129.358 334.231 129.358C335.968 129.358 337.513 129.782 338.865 130.631C340.217 131.479 341.281 132.686 342.057 134.25C342.832 135.814 343.22 137.67 343.22 139.818ZM340.834 139.818C340.834 138.055 340.539 136.567 339.949 135.354C339.365 134.141 338.573 133.223 337.572 132.599C336.578 131.976 335.464 131.665 334.231 131.665C332.998 131.665 331.881 131.976 330.88 132.599C329.886 133.223 329.094 134.141 328.504 135.354C327.921 136.567 327.629 138.055 327.629 139.818C327.629 141.581 327.921 143.07 328.504 144.283C329.094 145.496 329.886 146.414 330.88 147.037C331.881 147.66 332.998 147.972 334.231 147.972C335.464 147.972 336.578 147.66 337.572 147.037C338.573 146.414 339.365 145.496 339.949 144.283C340.539 143.07 340.834 141.581 340.834 139.818Z" fill="black"/>
<path d="M347.366 150V129.636H354.247C355.838 129.636 357.144 129.908 358.165 130.452C359.185 130.989 359.941 131.728 360.432 132.669C360.922 133.61 361.167 134.681 361.167 135.881C361.167 137.08 360.922 138.144 360.432 139.072C359.941 140 359.189 140.73 358.175 141.26C357.16 141.784 355.864 142.045 354.287 142.045H348.719V139.818H354.207C355.294 139.818 356.169 139.659 356.832 139.341C357.502 139.023 357.986 138.572 358.284 137.989C358.589 137.399 358.741 136.696 358.741 135.881C358.741 135.065 358.589 134.353 358.284 133.743C357.979 133.133 357.492 132.662 356.822 132.331C356.153 131.993 355.268 131.824 354.167 131.824H349.832V150H347.366ZM356.952 140.852L361.963 150H359.099L354.167 140.852H356.952Z" fill="black"/>
<path d="M364.163 131.824V129.636H379.436V131.824H373.032V150H370.566V131.824H364.163Z" fill="black"/>
<path d="M381.698 150H379.112L386.59 129.636H389.135L396.612 150H394.027L387.942 132.858H387.783L381.698 150ZM382.652 142.045H393.073V144.233H382.652V142.045Z" fill="black"/>
<path d="M396.292 131.824V129.636H411.564V131.824H405.161V150H402.695V131.824H396.292Z" fill="black"/>
<path d="M413.827 150H411.241L418.719 129.636H421.264L428.741 150H426.156L420.071 132.858H419.912L413.827 150ZM414.781 142.045H425.202V144.233H414.781V142.045Z" fill="black"/>
<path d="M446.072 150H439.788V129.636H446.351C448.326 129.636 450.016 130.044 451.422 130.859C452.827 131.668 453.904 132.831 454.653 134.349C455.402 135.861 455.777 137.67 455.777 139.778C455.777 141.9 455.399 143.726 454.643 145.257C453.888 146.782 452.787 147.955 451.342 148.777C449.897 149.592 448.14 150 446.072 150ZM442.254 147.812H445.913C447.597 147.812 448.992 147.488 450.099 146.838C451.206 146.188 452.032 145.264 452.575 144.064C453.119 142.864 453.39 141.436 453.39 139.778C453.39 138.134 453.122 136.719 452.585 135.533C452.048 134.339 451.246 133.425 450.179 132.788C449.112 132.145 447.782 131.824 446.192 131.824H442.254V147.812Z" fill="black"/>
<path d="M462.379 129.636V150H459.913V129.636H462.379Z" fill="black"/>
<path d="M475.198 129.636H478.142L485.062 146.54H485.301L492.221 129.636H495.164V150H492.857V134.528H492.659L486.295 150H484.068L477.704 134.528H477.505V150H475.198V129.636Z" fill="black"/>
<path d="M500.944 150H498.358L505.836 129.636H508.381L515.858 150H513.273L507.188 132.858H507.029L500.944 150ZM501.898 142.045H512.319V144.233H501.898V142.045Z" fill="black"/>
<path d="M535.178 129.636V150H532.792L521.695 134.011H521.496V150H519.03V129.636H521.417L532.553 145.665H532.752V129.636H535.178Z" fill="black"/>
<path d="M557.294 139.818C557.294 141.966 556.906 143.822 556.131 145.386C555.355 146.951 554.291 148.157 552.939 149.006C551.587 149.854 550.042 150.278 548.306 150.278C546.569 150.278 545.024 149.854 543.672 149.006C542.32 148.157 541.256 146.951 540.48 145.386C539.705 143.822 539.317 141.966 539.317 139.818C539.317 137.67 539.705 135.814 540.48 134.25C541.256 132.686 542.32 131.479 543.672 130.631C545.024 129.782 546.569 129.358 548.306 129.358C550.042 129.358 551.587 129.782 552.939 130.631C554.291 131.479 555.355 132.686 556.131 134.25C556.906 135.814 557.294 137.67 557.294 139.818ZM554.908 139.818C554.908 138.055 554.613 136.567 554.023 135.354C553.44 134.141 552.647 133.223 551.646 132.599C550.652 131.976 549.538 131.665 548.306 131.665C547.073 131.665 545.956 131.976 544.955 132.599C543.96 133.223 543.168 134.141 542.578 135.354C541.995 136.567 541.703 138.055 541.703 139.818C541.703 141.581 541.995 143.07 542.578 144.283C543.168 145.496 543.96 146.414 544.955 147.037C545.956 147.66 547.073 147.972 548.306 147.972C549.538 147.972 550.652 147.66 551.646 147.037C552.647 146.414 553.44 145.496 554.023 144.283C554.613 143.07 554.908 141.581 554.908 139.818Z" fill="black"/>
</svg>
